<svg version="1.1" xmlns="http://www.w3.org/2000/svg" xmlns:xlink="http://www.w3.org/1999/xlink" width="24px" height="24px" viewBox="0,0,256,256"><g fill="#ffffff" fill-rule="nonzero" stroke="none" stroke-width="1" stroke-linecap="butt" stroke-linejoin="miter" stroke-miterlimit="10" stroke-dasharray="" stroke-dashoffset="0" font-family="none" font-size="none" style="mix-blend-mode: normal"><g transform="scale(10.66667,10.66667)"><circle cx="12" cy="6" r="4" opacity="0.35"></circle><circle cx="4.5" cy="9.5" r="2.5" opacity="0.35"></circle><circle cx="19.5" cy="9.5" r="2.5" opacity="0.35"></circle><path d="M15,19h-6c-1.657,0 -3,-1.567 -3,-3.5v0c0,-1.933 1.343,-3.5 3,-3.5h6c1.657,0 3,1.567 3,3.5v0c0,1.933 -1.343,3.5 -3,3.5z"></path><path d="M21.551,14h-19.179c-1.31,0 -2.372,1.062 -2.372,2.372v0.257c0,1.309 1.062,2.371 2.372,2.371h19.179c1.352,0 2.449,-1.097 2.449,-2.45v-0.101c0,-1.352 -1.097,-2.449 -2.449,-2.449z" opacity="0.35"></path></g></g></svg>
