<svg version="1.1" xmlns="http://www.w3.org/2000/svg" xmlns:xlink="http://www.w3.org/1999/xlink" width="24px" height="24px" viewBox="0,0,256,256"><g fill="#ffffff" fill-rule="nonzero" stroke="none" stroke-width="1" stroke-linecap="butt" stroke-linejoin="miter" stroke-miterlimit="10" stroke-dasharray="" stroke-dashoffset="0" font-family="none" font-size="none" style="mix-blend-mode: normal"><g transform="scale(10.66667,10.66667)"><path d="M4,20v-17c0,-0.552 0.448,-1 1,-1h12c1.657,0 3,1.343 3,3v13c0,1.657 -1.343,3 -3,3h-12c-0.552,0 -1,-0.448 -1,-1z" opacity="0.35"></path><path d="M11,21h-5v2.216c0,0.656 0.759,1.021 1.271,0.611l1.229,-0.983l1.229,0.983c0.512,0.41 1.271,0.045 1.271,-0.611z"></path><circle cx="7.5" cy="6.5" r="1.5"></circle><circle cx="7.5" cy="11.5" r="1.5"></circle><circle cx="7.5" cy="16.5" r="1.5"></circle
></g></g></svg>
